<?xml version="1.0" encoding="utf-8"?>
<!-- Generator: Adobe Illustrator 17.1.0, SVG Export Plug-In . SVG Version: 6.00 Build 0)  -->
<!DOCTYPE svg PUBLIC "-//W3C//DTD SVG 1.1//EN" "http://www.w3.org/Graphics/SVG/1.1/DTD/svg11.dtd">
<svg version="1.1" id="Layer_1" xmlns="http://www.w3.org/2000/svg" xmlns:xlink="http://www.w3.org/1999/xlink" x="0px" y="0px"
	 viewBox="0 0 47.001 54.001" xml:space="preserve">
<path d="M23.501,0c-0.342,0-0.686,0.09-0.993,0.268L0.994,12.769C0.358,13.138-0.012,13.822,0,14.536
	c0.002,0.875,0.002,24.725,0.002,24.969c0,0.715,0.379,1.375,0.994,1.732l21.45,12.459c0.313,0.197,0.678,0.305,1.054,0.305
	c0.15,0,0.303-0.018,0.454-0.053c0.208-0.049,0.402-0.131,0.579-0.238l21.472-12.477c0.615-0.357,0.993-1.017,0.993-1.732l0.002-25
	c0-0.714-0.378-1.374-0.993-1.732L24.494,0.268C24.187,0.09,23.844,0,23.501,0z M12.769,8.814L33.29,20.738l-9.789,5.688
	L2.98,14.501L12.769,8.814z M2.485,39.216L2.484,18.408c0-1.433,0-2.4-0.017-3.052l20.538,11.936v23.844L2.485,39.216z
	 M23.997,51.136V27.292l20.521-11.926l-0.002,23.846L23.997,51.136z M34.282,20.162L13.761,8.236l9.74-5.66l20.521,11.926
	L34.282,20.162z" fill="#757575"/>
</svg>
