<?xml version="1.0" encoding="utf-8"?>
<!-- Generator: Adobe Illustrator 17.1.0, SVG Export Plug-In . SVG Version: 6.00 Build 0)  -->
<!DOCTYPE svg PUBLIC "-//W3C//DTD SVG 1.1//EN" "http://www.w3.org/Graphics/SVG/1.1/DTD/svg11.dtd">
<svg version="1.1" id="Layer_1" xmlns="http://www.w3.org/2000/svg" xmlns:xlink="http://www.w3.org/1999/xlink" x="0px" y="0px"
	 viewBox="0 0 54.008 45.993" enable-background="new 0 0 54.008 45.993" xml:space="preserve">
<path d="M20.77,22.326l-0.484-0.876c-2.426,1.36-5.172,3.549-5.226,4.459c-0.006,0.033-0.011,0.073-0.011,0.106
	c0,0.958,2.761,3.165,5.238,4.547l0.483-0.878c-2.689-1.497-4.426-3.165-4.702-3.669C16.338,25.513,18.077,23.835,20.77,22.326z" fill="#757575"/>
<path d="M24.433,31.65l0.936,0.343l4.202-11.631l-0.936-0.343L24.433,31.65z" fill="#757575"/>
<path d="M33.718,21.45l-0.482,0.878c2.689,1.497,4.426,3.165,4.701,3.669c-0.268,0.5-2.008,2.177-4.703,3.687l0.484,0.878
	c2.43-1.362,5.177-3.553,5.225-4.461c0.007-0.031,0.011-0.07,0.011-0.104C38.955,25.035,36.195,22.83,33.718,21.45z" fill="#757575"/>
<path d="M3.984,45.993h46.039c2.196,0,3.984-1.799,3.984-4.014V4.014C54.008,1.801,52.22,0,50.023,0H3.984C1.787,0,0,1.801,0,4.014
	v37.965C0,44.194,1.787,45.993,3.984,45.993z M3.984,2.509H9.26v6.858H2.49V4.014C2.49,3.183,3.159,2.509,3.984,2.509z
	 M50.023,2.509c0.823,0,1.494,0.674,1.494,1.505v5.353H10.256V2.509H50.023z M50.023,43.484H3.984c-0.825,0-1.494-0.674-1.494-1.505
	V10.37h49.028v31.609C51.518,42.81,50.847,43.484,50.023,43.484z" fill="#757575"/>
</svg>
