<?xml version="1.0" encoding="utf-8"?>
<!-- Generator: Adobe Illustrator 17.1.0, SVG Export Plug-In . SVG Version: 6.00 Build 0)  -->
<!DOCTYPE svg PUBLIC "-//W3C//DTD SVG 1.1//EN" "http://www.w3.org/Graphics/SVG/1.1/DTD/svg11.dtd">
<svg version="1.1" id="Layer_1" xmlns="http://www.w3.org/2000/svg" xmlns:xlink="http://www.w3.org/1999/xlink" x="0px" y="0px"
	 viewBox="0 0 960 560" enable-background="new 0 0 960 560" xml:space="preserve">
<path fill="#FFFFFF" d="M719.061,206.136v-26.67c0-52.087-22.643-101.561-62.142-135.779c-24.323-21.07-53.901-35.178-85.452-40.779
	C560.345,0.933,550.05,0,540.022,0c-61.876,0-119.644,32.698-152.048,84.705c-2.027-0.107-4.081-0.133-6.134-0.133
	c-70.917,0-129.725,52.781-139.46,121.217c-25.977,8.641-49.767,23.443-69.37,43.233c-34.138,34.432-52.968,80.385-52.968,129.405
	c0,100.148,79.398,181.599,176.959,181.599h366.026c97.587,0,176.959-81.452,176.959-181.599
	C839.958,299.776,790.271,230.566,719.061,206.136z M662.999,526.582H297.001c-79.398,0-143.994-66.463-143.994-148.181
	c0-40.032,15.362-77.558,43.26-105.722c18.749-18.909,42.139-32.191,67.716-38.405l4.907-1.227c2.934-0.72,5.014-4.134,5.014-7.201
	c0-59.475,48.407-107.855,107.935-107.855c6.188,0,12.322,0.533,18.243,1.547c3.147,1.174,6.721-0.24,8.215-3.334
	c24.217-50.274,75.931-82.758,131.725-82.758c8.134,0,16.562,0.8,25.737,2.4c25.764,4.587,49.9,16.082,69.743,33.258
	c32.165,27.844,50.594,68.063,50.594,110.362l0.027,47.127c0,3.174,2.214,5.894,5.281,6.561
	c66.996,13.789,115.59,74.891,115.59,145.274C807.02,460.119,742.424,526.582,662.999,526.582z"/>
<path fill="#FFFFFF" d="M506.39,381.548V226.379h-26.377v155.169l-42.753-43.34l-18.643,18.909l65.263,66.169
	c2.587,2.614,5.948,3.921,9.308,3.921c3.387,0,6.748-1.307,9.335-3.921l65.236-66.169l-18.643-18.909L506.39,381.548z"/>
</svg>
