<?xml version="1.0" encoding="utf-8"?>
<!-- Generator: Adobe Illustrator 17.1.0, SVG Export Plug-In . SVG Version: 6.00 Build 0)  -->
<!DOCTYPE svg PUBLIC "-//W3C//DTD SVG 1.1//EN" "http://www.w3.org/Graphics/SVG/1.1/DTD/svg11.dtd">
<svg version="1.1" id="Calque_1" xmlns="http://www.w3.org/2000/svg" xmlns:xlink="http://www.w3.org/1999/xlink" x="0px" y="0px"
	 viewBox="9.9 5.5 68.6 76" enable-background="new 9.9 5.5 68.6 76" xml:space="preserve">
<g>
	<path d="M72.1,68.6H16.4c-3.6,0-6.4,2.9-6.4,6.4s2.9,6.4,6.4,6.4h55.7c3.6,0,6.4-2.9,6.4-6.4S75.7,68.6,72.1,68.6z" fill="#FFFFFF" />
	<path d="M39.7,61.1c1.2,1.2,2.8,1.9,4.6,1.9s3.3-0.7,4.6-1.9l23.1-23.1c2.5-2.5,2.5-6.6,0-9.1c-2.5-2.5-6.6-2.5-9.1,0L50.7,41V12
		c0-3.6-2.9-6.4-6.4-6.4s-6.4,2.9-6.4,6.4v29L25.7,29c-2.5-2.5-6.6-2.5-9.1,0c-2.5,2.5-2.5,6.6,0,9.1L39.7,61.1z" fill="#FFFFFF" />
</g>
</svg>
