<?xml version="1.0" encoding="utf-8"?>
<!-- Generator: Adobe Illustrator 17.1.0, SVG Export Plug-In . SVG Version: 6.00 Build 0)  -->
<!DOCTYPE svg PUBLIC "-//W3C//DTD SVG 1.1//EN" "http://www.w3.org/Graphics/SVG/1.1/DTD/svg11.dtd">
<svg version="1.1" id="Layer_1" xmlns="http://www.w3.org/2000/svg" xmlns:xlink="http://www.w3.org/1999/xlink" x="0px" y="0px"
	 viewBox="0 0 18.999 16.006" enable-background="new 0 0 18.999 16.006" xml:space="preserve">
<path fill="#7C7C7C" d="M7.826,4.295h5.761v1.851l5.411-3.073L13.588,0v1.83H5.023C6.128,2.439,7.021,3.361,7.826,4.295z
	 M13.588,11.625c-0.443-0.137-1.008-0.495-1.641-1.119C10.665,9.27,9.289,7.214,7.843,5.415C6.376,3.664,4.864,1.913,2.506,1.828H0
	v2.465h2.506c0.47-0.019,1.206,0.342,2.062,1.186c1.28,1.235,2.658,3.29,4.104,5.089c1.376,1.64,2.798,3.268,4.915,3.534v1.903
	l5.411-3.07l-5.411-3.072L13.588,11.625L13.588,11.625z"/>
</svg>
