<?xml version="1.0" encoding="utf-8"?>
<!-- Generator: Adobe Illustrator 17.1.0, SVG Export Plug-In . SVG Version: 6.00 Build 0)  -->
<!DOCTYPE svg PUBLIC "-//W3C//DTD SVG 1.1//EN" "http://www.w3.org/Graphics/SVG/1.1/DTD/svg11.dtd">
<svg version="1.1" id="Layer_1" xmlns="http://www.w3.org/2000/svg" xmlns:xlink="http://www.w3.org/1999/xlink" x="0px" y="0px"
	 viewBox="0 0 54 44.998" xml:space="preserve">
<path d="M50.231,29.828l1.364-14.896C53.048,14.085,54,12.507,54,10.751c0-2.669-2.169-4.839-4.835-4.839
	c-0.322,0-0.601,0.041-0.811,0.076c-2.327,0.393-4.02,2.395-4.02,4.763c0,1.105,0.368,2.145,1.027,2.98
	c-0.476,1.046-0.901,1.378-1.047,1.467c-0.124,0.074-0.207,0.086-0.277,0.086c-0.34,0-1.11-0.725-1.838-2.72
	c-0.484-1.328-0.804-2.818-0.982-4.054c1.054-0.905,1.698-2.243,1.698-3.67C42.916,2.172,40.747,0,38.081,0
	c-0.672,0-1.327,0.141-1.949,0.414c-1.749,0.774-2.88,2.511-2.88,4.425c0,0.984,0.294,1.92,0.825,2.706
	c-0.48,0.641-1.099,1.216-1.829,1.697c-0.184,0.121-0.375,0.237-0.571,0.344c-0.524-2.131-2.434-3.674-4.675-3.676
	c-2.245,0.002-4.156,1.545-4.68,3.676c-0.196-0.108-0.387-0.223-0.57-0.344c-0.731-0.481-1.349-1.056-1.831-1.697
	c0.532-0.786,0.826-1.723,0.826-2.706c0-1.914-1.131-3.651-2.881-4.425C17.244,0.139,16.589,0,15.918,0
	c-2.665,0-4.834,2.172-4.834,4.839c0,1.428,0.645,2.765,1.697,3.67c-0.178,1.236-0.497,2.726-0.982,4.054
	c-0.728,1.994-1.498,2.72-1.839,2.72c-0.07,0-0.153-0.012-0.277-0.086c-0.145-0.088-0.57-0.42-1.047-1.467
	c0.659-0.835,1.027-1.875,1.027-2.98c0-2.368-1.692-4.37-4.024-4.765C5.434,5.952,5.154,5.911,4.835,5.911
	C2.169,5.911,0,8.082,0,10.751c0,1.756,0.952,3.334,2.404,4.181L3.769,29.83c0.076,8.512,10.253,15.168,23.23,15.168
	C39.978,44.998,50.154,38.341,50.231,29.828z M4.835,8.414c0.133,0,0.261,0.02,0.39,0.041c1.124,0.19,1.94,1.154,1.94,2.296
	c0,0.819-0.424,1.566-1.133,1.995l-0.339,0.205l0.12,0.375c0.642,2.014,1.508,3.363,2.574,4.01c0.49,0.297,1.02,0.45,1.574,0.45
	c1.697,0,3.145-1.51,4.186-4.364c0.629-1.721,1.101-3.926,1.263-5.898l0.031-0.376L15.09,7.016
	c-0.915-0.348-1.506-1.202-1.506-2.176c0-1.288,1.047-2.337,2.334-2.337c0.321,0,0.637,0.069,0.938,0.201
	c0.846,0.374,1.392,1.212,1.392,2.135c0,0.802-0.407,1.539-1.09,1.971l-0.367,0.233l0.179,0.397
	c0.693,1.535,1.871,2.882,3.407,3.893c1.235,0.815,2.688,1.39,4.207,1.686c0.059,0.062,0.115,0.129,0.18,0.188
	c-0.104,0.833-1.512,10.862-8.904,10.862c-4.096,0-6.535-3.279-7.859-6.028l-0.901,0.434c2.049,4.253,5.16,6.596,8.761,6.596
	c8.47,0,9.859-11.408,9.906-11.832l0.346,0.062l-0.335-0.399l0.005-0.152l-0.197-0.157c-0.134-0.106-0.255-0.223-0.359-0.35h-0.001
	l0,0c-0.363-0.432-0.556-0.948-0.556-1.492c0-0.053,0.009-0.106,0.016-0.156l0.014-0.106c0.133-1.181,1.124-2.073,2.303-2.075
	c1.18,0.002,2.17,0.894,2.304,2.071l0.014,0.111c0.007,0.051,0.016,0.102,0.016,0.154c0,0.542-0.192,1.058-0.556,1.492l0,0h-0.001
	c-0.107,0.127-0.226,0.242-0.354,0.346l-0.194,0.151l0.003,0.154l-0.341,0.407l0.346-0.062v0.019
	c0.013,0.117,1.332,11.813,9.904,11.813c3.601,0,6.714-2.343,8.763-6.596L46,18.041c-1.324,2.749-3.764,6.028-7.861,6.028
	c-7.56,0-8.86-10.493-8.905-10.86c0.064-0.059,0.122-0.125,0.181-0.189c1.521-0.295,2.973-0.87,4.207-1.686
	c1.537-1.011,2.715-2.358,3.407-3.893l0.18-0.397l-0.368-0.233c-0.682-0.432-1.089-1.167-1.089-1.971
	c0-0.923,0.546-1.762,1.391-2.135c0.302-0.133,0.617-0.201,0.938-0.201c1.288,0,2.335,1.048,2.335,2.337
	c0,0.974-0.591,1.826-1.507,2.176l-0.351,0.135l0.031,0.373c0.162,1.971,0.634,4.175,1.262,5.898
	c1.042,2.855,2.489,4.364,4.186,4.364c0.554,0,1.083-0.151,1.575-0.45c1.065-0.647,1.931-1.997,2.573-4.01l0.12-0.375l-0.338-0.205
	c-0.71-0.428-1.134-1.175-1.134-1.995c0-1.142,0.817-2.106,1.941-2.296c0.127-0.024,0.255-0.041,0.389-0.041
	c1.287,0,2.335,1.048,2.335,2.337c0,1.113-0.792,2.075-1.882,2.29l-0.367,0.073l-1.52,16.619c0,7.038-9.3,12.763-20.732,12.763
	c-11.43,0-20.731-5.725-20.733-12.808L4.748,13.113L4.381,13.04c-1.09-0.215-1.881-1.177-1.881-2.29
	C2.5,9.462,3.547,8.414,4.835,8.414z" fill="#757575"/>
</svg>
