<?xml version="1.0" encoding="utf-8"?>
<!-- Generator: Adobe Illustrator 17.1.0, SVG Export Plug-In . SVG Version: 6.00 Build 0)  -->
<!DOCTYPE svg PUBLIC "-//W3C//DTD SVG 1.1//EN" "http://www.w3.org/Graphics/SVG/1.1/DTD/svg11.dtd">
<svg version="1.1" id="Layer_1" xmlns="http://www.w3.org/2000/svg" xmlns:xlink="http://www.w3.org/1999/xlink" x="0px" y="0px"
	 viewBox="0 0 394.876 312.751" xml:space="preserve">
<path fill="#EF4314" d="M394.876,156.373C394.876,70.01,324.866,0,238.503,0v0H182.32v64.021h65.72
	c22.957,0,52.128,15.653,64.525,34.975c46.439,72.376-4.882,149.728-74.062,149.728l-51.26,0.687
	c-3.179,0.043-6.239-1.201-8.487-3.449l-89.571-89.589l-44.024-46.619L0.956,154.058c-1.276,1.279-1.275,3.35,0.003,4.627
	l91.992,91.992h0l0,0l53.771,53.771c5.316,5.316,12.525,8.303,20.043,8.302c4.412,0,9.772-0.001,15.555-0.001
	c24.069-0.002,55.461-0.004,56.286-0.004c1.321,0,2.643-0.022,3.766-0.049c0.105-0.003,0.209-0.005,0.314-0.008
	c1.583-0.04,2.695-0.087,2.695-0.087l-0.014-0.014C328.544,308.994,394.876,240.435,394.876,156.373z"/>
<polygon fill="#C1331B" points="245.31,0.146 207.927,64.021 182.32,63.136 "/>
<g>
	<path fill="#FF5A27" d="M245.31,0.146c0,0-2.554-0.146-6.806-0.146h-71.846c-7.518,0-14.728,2.986-20.044,8.302L45.162,109.755
		l43.921,46.619L245.31,0.146z"/>
</g>
</svg>
